<?xml version="1.0" encoding="UTF-8" standalone="no"?>
<!DOCTYPE svg PUBLIC "-//W3C//DTD SVG 1.1//EN"
 "http://www.w3.org/Graphics/SVG/1.1/DTD/svg11.dtd">
<!-- Generated by graphviz version 2.43.0 (0)
 -->
<!-- Title: cenario Pages: 1 -->
<svg width="211pt" height="437pt"
 viewBox="0.00 0.00 211.00 437.00" xmlns="http://www.w3.org/2000/svg" xmlns:xlink="http://www.w3.org/1999/xlink">
<g id="graph0" class="graph" transform="scale(1 1) rotate(0) translate(4 433)">
<title>cenario</title>
<polygon fill="white" stroke="transparent" points="-4,4 -4,-433 207,-433 207,4 -4,4"/>
<!-- n1 -->
<g id="node1" class="node">
<title>n1</title>
<path fill="#eef2f7" stroke="#4a5568" d="M191,-429C191,-429 12,-429 12,-429 6,-429 0,-423 0,-417 0,-417 0,-405 0,-405 0,-399 6,-393 12,-393 12,-393 191,-393 191,-393 197,-393 203,-399 203,-405 203,-405 203,-417 203,-417 203,-423 197,-429 191,-429"/>
<text text-anchor="start" x="8" y="-414.4" font-family="Helvetica,sans-Serif" font-size="12.00">1. db_reset()</text>
<text text-anchor="start" x="8" y="-401.4" font-family="Helvetica,sans-Serif" font-size="12.00">zera saldos e garante estado limpo</text>
</g>
<!-- n2 -->
<g id="node2" class="node">
<title>n2</title>
<path fill="#eef2f7" stroke="#4a5568" d="M182.5,-357C182.5,-357 20.5,-357 20.5,-357 14.5,-357 8.5,-351 8.5,-345 8.5,-345 8.5,-322 8.5,-322 8.5,-316 14.5,-310 20.5,-310 20.5,-310 182.5,-310 182.5,-310 188.5,-310 194.5,-316 194.5,-322 194.5,-322 194.5,-345 194.5,-345 194.5,-351 188.5,-357 182.5,-357"/>
<text text-anchor="start" x="16.5" y="-343.4" font-family="Helvetica,sans-Serif" font-size="12.00">2. Produtor</text>
<text text-anchor="start" x="16.5" y="-330.4" font-family="Helvetica,sans-Serif" font-size="12.00">gera N transferencias aleatorias</text>
<text text-anchor="start" x="16.5" y="-317.4" font-family="Helvetica,sans-Serif" font-size="12.00">e empurra na fila</text>
</g>
<!-- n1&#45;&gt;n2 -->
<g id="edge1" class="edge">
<title>n1&#45;&gt;n2</title>
<path fill="none" stroke="#718096" d="M101.5,-392.87C101.5,-385.24 101.5,-375.99 101.5,-367.12"/>
<polygon fill="#718096" stroke="#718096" points="105,-367.01 101.5,-357.01 98,-367.01 105,-367.01"/>
</g>
<!-- n3 -->
<g id="node3" class="node">
<title>n3</title>
<path fill="#eef2f7" stroke="#4a5568" d="M170.5,-274C170.5,-274 32.5,-274 32.5,-274 26.5,-274 20.5,-268 20.5,-262 20.5,-262 20.5,-239 20.5,-239 20.5,-233 26.5,-227 32.5,-227 32.5,-227 170.5,-227 170.5,-227 176.5,-227 182.5,-233 182.5,-239 182.5,-239 182.5,-262 182.5,-262 182.5,-268 176.5,-274 170.5,-274"/>
<text text-anchor="start" x="28.5" y="-260.4" font-family="Helvetica,sans-Serif" font-size="12.00">3. N workers em paralelo</text>
<text text-anchor="start" x="28.5" y="-247.4" font-family="Helvetica,sans-Serif" font-size="12.00">consomem a fila, cada um</text>
<text text-anchor="start" x="28.5" y="-234.4" font-family="Helvetica,sans-Serif" font-size="12.00">com sua conexao ao banco</text>
</g>
<!-- n2&#45;&gt;n3 -->
<g id="edge2" class="edge">
<title>n2&#45;&gt;n3</title>
<path fill="none" stroke="#718096" d="M101.5,-309.94C101.5,-302.02 101.5,-292.95 101.5,-284.36"/>
<polygon fill="#718096" stroke="#718096" points="105,-284.22 101.5,-274.22 98,-284.22 105,-284.22"/>
</g>
<!-- n4 -->
<g id="node4" class="node">
<title>n4</title>
<path fill="#eef2f7" stroke="#4a5568" d="M169,-191C169,-191 34,-191 34,-191 28,-191 22,-185 22,-179 22,-179 22,-167 22,-167 22,-161 28,-155 34,-155 34,-155 169,-155 169,-155 175,-155 181,-161 181,-167 181,-167 181,-179 181,-179 181,-185 175,-191 169,-191"/>
<text text-anchor="start" x="30" y="-176.4" font-family="Helvetica,sans-Serif" font-size="12.00">4. Fila vazia</text>
<text text-anchor="start" x="30" y="-163.4" font-family="Helvetica,sans-Serif" font-size="12.00">todos os workers encerram</text>
</g>
<!-- n3&#45;&gt;n4 -->
<g id="edge3" class="edge">
<title>n3&#45;&gt;n4</title>
<path fill="none" stroke="#718096" d="M101.5,-226.85C101.5,-218.78 101.5,-209.62 101.5,-201.22"/>
<polygon fill="#718096" stroke="#718096" points="105,-201.11 101.5,-191.11 98,-201.11 105,-201.11"/>
</g>
<!-- n5 -->
<g id="node5" class="node">
<title>n5</title>
<path fill="#eef2f7" stroke="#4a5568" d="M161,-119C161,-119 42,-119 42,-119 36,-119 30,-113 30,-107 30,-107 30,-84 30,-84 30,-78 36,-72 42,-72 42,-72 161,-72 161,-72 167,-72 173,-78 173,-84 173,-84 173,-107 173,-107 173,-113 167,-119 161,-119"/>
<text text-anchor="start" x="38" y="-105.4" font-family="Helvetica,sans-Serif" font-size="12.00">5. db_total()</text>
<text text-anchor="start" x="38" y="-92.4" font-family="Helvetica,sans-Serif" font-size="12.00">soma saldos e compara</text>
<text text-anchor="start" x="38" y="-79.4" font-family="Helvetica,sans-Serif" font-size="12.00">com valor inicial</text>
</g>
<!-- n4&#45;&gt;n5 -->
<g id="edge4" class="edge">
<title>n4&#45;&gt;n5</title>
<path fill="none" stroke="#718096" d="M101.5,-154.87C101.5,-147.24 101.5,-137.99 101.5,-129.12"/>
<polygon fill="#718096" stroke="#718096" points="105,-129.01 101.5,-119.01 98,-129.01 105,-129.01"/>
</g>
<!-- n6 -->
<g id="node6" class="node">
<title>n6</title>
<path fill="#fef3c7" stroke="#4a5568" d="M163,-36C163,-36 40,-36 40,-36 34,-36 28,-30 28,-24 28,-24 28,-12 28,-12 28,-6 34,0 40,0 40,0 163,0 163,0 169,0 175,-6 175,-12 175,-12 175,-24 175,-24 175,-30 169,-36 163,-36"/>
<text text-anchor="start" x="36" y="-21.4" font-family="Helvetica,sans-Serif" font-size="12.00">6. Diferenca != 0</text>
<text text-anchor="start" x="36" y="-8.4" font-family="Helvetica,sans-Serif" font-size="12.00">race condition detectada</text>
</g>
<!-- n5&#45;&gt;n6 -->
<g id="edge5" class="edge">
<title>n5&#45;&gt;n6</title>
<path fill="none" stroke="#718096" d="M101.5,-71.85C101.5,-63.78 101.5,-54.62 101.5,-46.22"/>
<polygon fill="#718096" stroke="#718096" points="105,-46.11 101.5,-36.11 98,-46.11 105,-46.11"/>
</g>
</g>
</svg>
